# xmcd
#
# Track frame offsets:
#	150
#	13855
#	25417
#	37522
#	51927
#	66170
#	77512
#	88165
#	100107
#	111137
#	124592
#	137932
#	149852
#	164057
#
# Disc length: 2333 seconds
#
# Revision: 1
# Processed by: cddbd v1.5.1PL2 Copyright (c) Steve Scherf et al.
# Submitted via: audiograbber 1.82.02
#
DISCID=c3091b0e
DTITLE=Patti Page - The Very Best Of Patti Page
DYEAR=1900
DGENRE=
TTITLE0=Mockin' Bird Hill
TTITLE1=Hush Hush Sweet Charlotte
TTITLE2=(How Much Is That) Doggie In The Window
TTITLE3=Try To Remember
TTITLE4=Old Cape Cod
TTITLE5=Can't Get Used To Losing You
TTITLE6=Say Wonderful Things
TTITLE7=Cross The Bridge
TTITLE8=Tennessee Waltz
TTITLE9=Early In The Morning
TTITLE10=Allegheny Moon
TTITLE11=Gentle On My Mind
TTITLE12=Danny Boy
TTITLE13=Can't Help Falling In Love
EXTD=
EXTT0=
EXTT1=
EXTT2=
EXTT3=
EXTT4=
EXTT5=
EXTT6=
EXTT7=
EXTT8=
EXTT9=
EXTT10=
EXTT11=
EXTT12=
EXTT13=
PLAYORDER=
